<svg xmlns="http://www.w3.org/2000/svg" enable-background="new 0 0 52 52" viewBox="0 0 52 52" id="online-analytics"><path fill="#C7C7C7" d="M38.31413,47.77357v1.13514c0,0.60153-0.49482,1.08664-1.09635,1.08664h-22.4314
						c-0.60159,0-1.0867-0.48511-1.0867-1.08664v-1.13514c0-0.5724,0.12613-1.11577,0.39782-1.62024l0.11642-0.18435l0.3784-0.60153
						l0.00971-0.02914l3.26963-5.21977h16.26078l3.27934,5.21977l0.00971,0.02914l0.3784,0.60153l0.11642,0.18435
						C38.17828,46.65779,38.31413,47.20117,38.31413,47.77357z"></path><polygon points="37.8 45.969 14.214 45.969 14.592 45.367 14.602 45.338 17.872 40.119 34.132 40.119 37.412 45.338 37.421 45.367" opacity=".07"></polygon><path fill="#E4F1FF" d="M46.66759,8.71554H5.33244c-1.44529,0-2.61693,1.20555-2.61693,2.69267v28.776
						c0,1.48713,1.17164,2.69267,2.61693,2.69267h41.33515c1.44529,0,2.61693-1.20554,2.61693-2.69267v-28.776
						C49.28452,9.92109,48.11288,8.71554,46.66759,8.71554z"></path><path d="M49.28352,11.40433v28.78431c0,1.48446-1.17392,2.68752-2.61954,2.68752H5.33273
						c-1.44561,0-2.6196-1.20306-2.6196-2.68752v-3.33755h8.79016c18.14306,0,32.93886-10.16586,33.66652-28.13428h1.49417
						C48.1096,8.71681,49.28352,9.91987,49.28352,11.40433z" opacity=".04"></path><path fill="#FFF" d="M45.48143,4.45193v26.00729c0,1.34786-1.09463,2.45072-2.45072,2.45072H8.96574
						c-1.35604,0-2.45072-1.10285-2.45072-2.45072V4.45193c0-1.34791,1.09468-2.45072,2.45072-2.45072h34.06497
						C44.3868,2.00122,45.48143,3.10402,45.48143,4.45193z"></path><path d="M45.48262,4.44989v26.00729c0,1.34786-1.09462,2.45072-2.45072,2.45072H8.96694
						c-1.35604,0-2.45072-1.10285-2.45072-2.45072v-1.05384h18.90321c9.14935,0,16.55869-7.40934,16.55869-16.55864V1.99917h1.05379
						C44.388,1.99917,45.48262,3.10197,45.48262,4.44989z" opacity=".05"></path><path fill="#E5A35A" d="M45.48143,4.45193v5.6775H6.51503v-5.6775c0-1.34791,1.09468-2.45072,2.45072-2.45072h34.06497
					C44.3868,2.00122,45.48143,3.10402,45.48143,4.45193z"></path><path fill="#FFF" d="M18.45023 6.0672c0 .66975-.548 1.21776-1.21775 1.21776-.68194 0-1.21776-.548-1.21776-1.21776s.53582-1.21776 1.21776-1.21776C17.90223 4.84944 18.45023 5.39744 18.45023 6.0672zM11.62268 6.0672c0 .66975-.54793 1.21776-1.21776 1.21776-.66975 0-1.21776-.548-1.21776-1.21776s.54801-1.21776 1.21776-1.21776C11.07475 4.84944 11.62268 5.39744 11.62268 6.0672z"></path><path d="M11.62268,6.0672c0,0.67384-0.55204,1.21776-1.21776,1.21776c-0.43025,0-0.79558-0.21109-1.0148-0.53579
									c0.18676,0.12987,0.42217,0.20296,0.67384,0.20296c0.66571,0,1.21776-0.55204,1.21776-1.21776
									c0-0.25167-0.07304-0.47901-0.20296-0.67384C11.40352,5.27974,11.62268,5.65315,11.62268,6.0672z" opacity=".05"></path><path fill="#FFF" d="M15.03649,6.0672c0,0.66975-0.54801,1.21776-1.21776,1.21776
								c-0.66975,0-1.21776-0.548-1.21776-1.21776s0.54801-1.21776,1.21776-1.21776
								C14.48849,4.84944,15.03649,5.39744,15.03649,6.0672z"></path><path d="M15.03649 6.0672c0 .67384-.55204 1.21776-1.21776 1.21776-.43025 0-.79558-.21109-1.0148-.53579.18676.12987.42217.20296.67384.20296.66571 0 1.21776-.55204 1.21776-1.21776 0-.25167-.07304-.47901-.20296-.67384C14.81733 5.27974 15.03649 5.65315 15.03649 6.0672zM18.45426 6.06313c0 .67384-.55204 1.21776-1.21775 1.21776-.43025 0-.79559-.21109-1.0148-.53579.18676.12987.42217.20296.67384.20296.66571 0 1.21775-.55204 1.21775-1.21776 0-.25167-.07304-.47901-.20296-.67384C18.23509 5.27567 18.45426 5.64909 18.45426 6.06313z" opacity=".05"></path><path fill="#FFF" d="M42.80936,5.21071v1.71296c0,0.20296-0.16233,0.35721-0.36529,0.35721H21.26323
							c-0.19483,0-0.35721-0.15425-0.35721-0.35721V5.21071c0-0.20296,0.16238-0.36534,0.35721-0.36534h21.18085
							C42.64704,4.84538,42.80936,5.00775,42.80936,5.21071z"></path><path d="M42.80936,5.21071v1.71296c0,0.20296-0.16233,0.35721-0.36529,0.35721H21.26323
							c-0.19483,0-0.35721-0.15425-0.35721-0.35721V6.81001h19.38667c1.11221,0,2.01334-0.86862,2.07018-1.96463h0.08121
							C42.64704,4.84538,42.80936,5.00775,42.80936,5.21071z" opacity=".05"></path><g><path fill="#F6C560" d="M23.67009,22.89379c0,3.60752-2.92081,6.52833-6.52833,6.52833s-6.52833-2.92081-6.52833-6.52833
					c0-3.59835,2.92081-6.52833,6.52833-6.52833v6.52833H23.67009z"></path><path d="M23.66698,22.89532c0,3.60999-2.91998,6.52997-6.52997,6.52997c-3.12,0-5.72998-2.19-6.37-5.13
					c1.19,1.53003,3.04999,2.52002,5.14996,2.52002c2.68005,0,4.99005-1.60999,5.99005-3.91998H23.66698z" opacity=".05"></path><path fill="#C7C7C7" d="M26.41693,20.14694H19.8886v-6.52833C23.49612,13.61862,26.41693,16.54859,26.41693,20.14694z"></path><path d="M26.41698,20.14532h-6.52997v-1.79004h3.08002c0.69995,0,1.20996-0.64996,1.07001-1.32996
					c-0.22003-1.03003-0.67004-1.97003-1.32001-2.76001C24.90703,15.31531,26.41698,17.5553,26.41698,20.14532z" opacity=".05"></path><rect width="4.386" height="15.8" x="32.607" y="13.622" fill="#2FCBFF"></rect><path d="M36.99263,13.62167v15.80044h-4.38567v-2.58896c1.47338-0.78433,2.48544-2.44433,2.48544-4.37081v-8.84067H36.99263z" opacity=".05"></path><rect width="4.386" height="7.721" x="28.221" y="21.701" fill="#FF5975"></rect><path d="M32.60695,21.70087v7.72124h-4.38568v-2.58896c1.47338-0.78433,2.48544-2.44433,2.48544-4.37081v-0.76147H32.60695z" opacity=".05"></path><rect width="4.386" height="11.46" x="36.993" y="17.962" fill="#59DE9B"></rect><path d="M41.3783,17.96205v11.46007h-4.38567v-2.58896c1.47338-0.78433,2.48544-2.44433,2.48544-4.37081v-4.5003H41.3783z" opacity=".05"></path><path fill="#293C66" d="M46.66797,7.71534h-0.18652V4.45216c0-1.90283-1.54785-3.45117-3.45117-3.45117H8.96582
					c-1.90332,0-3.45117,1.54834-3.45117,3.45117v3.26318H5.33203c-1.99414,0-3.61621,1.65674-3.61621,3.69287v28.77588
					c0,2.03613,1.62207,3.69287,3.61621,3.69287h9.00366c-1.0195,1.63153-1.6394,2.34358-1.6394,3.89355v1.13672
					c0,1.15332,0.93848,2.0918,2.0918,2.0918H37.2207c1.15332,0,2.0918-0.93848,2.0918-2.0918v-1.13672
					c0-1.5865-0.72465-2.42406-1.6394-3.89355h8.99487c1.99414,0,3.61621-1.65674,3.61621-3.69287V11.40821
					C50.28418,9.37208,48.66211,7.71534,46.66797,7.71534z M7.51465,11.1294h36.9668v19.32959
					c0,0.80029-0.65137,1.45117-1.45117,1.45117H8.96582c-0.7998,0-1.45117-0.65088-1.45117-1.45117V11.1294z M7.51465,4.45216
					c0-0.80029,0.65137-1.45117,1.45117-1.45117h34.06445c0.7998,0,1.45117,0.65088,1.45117,1.45117V9.1294H7.51465V4.45216z
					 M37.3125,47.77052c-0.03463,0.98994,0.07649,1.22852-0.0918,1.22852H14.78809c-0.04883,0-0.0918-0.04297-0.0918-0.0918
					v-1.13672c0-1.07787,0.9001-1.97577,2.00061-3.89355h18.61267C36.66606,46.23808,37.3125,46.5973,37.3125,47.77052z
					 M48.28418,40.18409c0,0.93359-0.72461,1.69287-1.61621,1.69287H5.33203c-0.8916,0-1.61621-0.75928-1.61621-1.69287V11.40821
					c0-0.93359,0.72461-1.69287,1.61621-1.69287h0.18262v0.41406v20.32959c0,1.90283,1.54785,3.45117,3.45117,3.45117h34.06445
					c1.90332,0,3.45117-1.54834,3.45117-3.45117V10.1294V9.71534h0.18652c0.8916,0,1.61621,0.75928,1.61621,1.69287V40.18409z"></path><path fill="#293C66" d="M17.1416,30.17188c4.01367,0,7.27832-3.26514,7.27832-7.27832c0-0.41406-0.33594-0.75-0.75-0.75H17.8916
					v-5.77832c0-0.41406-0.33594-0.75-0.75-0.75c-4.01367,0-7.27832,3.26514-7.27832,7.27832S13.12793,30.17188,17.1416,30.17188z
					 M16.3916,17.16358v5.72998c0,0.41406,0.33594,0.75,0.75,0.75h5.72949c-0.36816,2.83301-2.79785,5.02832-5.72949,5.02832
					c-3.18652,0-5.77832-2.59229-5.77832-5.77832C11.36328,19.96143,13.55859,17.53272,16.3916,17.16358z"></path><path fill="#293C66" d="M19.88867 20.89698h6.52832c.00684.00049.01465 0 .01953 0 .41504 0 .75-.33594.75-.75 0-.06299-.00684-.12354-.02148-.18213-.09668-3.92969-3.32422-7.09619-7.27637-7.09619-.41406 0-.75.33594-.75.75v6.52832C19.13867 20.56104 19.47461 20.89698 19.88867 20.89698zM20.63867 14.417c2.58789.33691 4.64258 2.39258 4.97949 4.97998h-4.97949V14.417zM28.22168 30.16944c.20198 0 13.57483 0 13.1582 0 .41406 0 .75-.33594.75-.75V17.95997c0-.41406-.33594-.75-.75-.75h-3.63574v-3.59131c0-.41406-.33594-.75-.75-.75h-4.38672c-.41406 0-.75.33594-.75.75v7.32959h-3.63574c-.41406 0-.75.33594-.75.75v7.72119C27.47168 29.8335 27.80762 30.16944 28.22168 30.16944zM40.62988 18.70997v9.95947h-2.88574v-9.95947H40.62988zM33.35742 14.36866h2.88672v3.59131 10.70947h-2.88672v-6.97119V14.36866zM28.97168 22.44825h2.88574v6.22119h-2.88574V22.44825z"></path></g></svg>